<svg id="svg" xmlns="http://www.w3.org/2000/svg" xmlns:xlink="http://www.w3.org/1999/xlink" width="400" height="400" viewBox="0, 0, 400,400"><g id="svgg"><path id="path0" d="M205.500 45.510 C 109.866 59.053,52.541 131.472,69.952 216.746 C 72.518 229.312,78.701 249.789,83.768 262.500 C 95.981 293.140,93.940 321.797,78.324 338.932 C 73.027 344.744,83.857 341.571,90.408 335.392 C 110.013 316.901,115.269 287.439,106.447 245.500 C 96.421 197.838,104.744 165.984,134.495 138.154 C 172.338 102.753,224.585 93.294,281.037 111.623 C 282.936 112.239,285.208 107.469,295.547 81.162 C 304.165 59.234,304.143 59.927,296.319 57.072 C 293.118 55.904,289.600 54.518,288.500 53.992 C 287.400 53.466,284.700 52.617,282.500 52.105 C 280.300 51.593,276.025 50.502,273.000 49.681 C 255.401 44.902,223.649 42.940,205.500 45.510 M212.642 111.739 L 207.784 112.118 208.370 117.309 C 208.693 120.164,209.217 127.450,209.535 133.500 C 210.519 152.224,211.124 152.799,216.887 140.499 C 222.878 127.715,228.965 122.065,240.846 118.261 L 250.020 115.323 246.239 114.190 C 237.321 111.518,226.035 110.695,212.642 111.739 M196.174 114.520 C 193.245 115.234,190.685 115.982,190.486 116.181 C 190.152 116.515,196.404 147.433,197.554 151.136 C 198.339 153.663,206.000 151.523,206.000 148.777 C 206.000 137.700,203.383 112.936,202.231 113.111 C 201.829 113.171,199.103 113.806,196.174 114.520 M177.399 120.337 L 172.299 122.500 174.201 127.000 C 181.615 144.540,187.420 155.999,188.886 155.985 C 192.726 155.948,193.419 154.464,192.223 148.831 C 191.600 145.899,189.878 137.762,188.395 130.750 C 185.375 116.462,185.735 116.803,177.399 120.337 M162.985 127.398 C 155.206 131.559,154.487 129.472,172.502 155.000 C 174.636 158.025,176.509 160.675,176.663 160.889 C 176.818 161.102,178.262 160.639,179.874 159.858 L 182.804 158.439 175.870 142.488 C 167.582 123.421,168.472 124.463,162.985 127.398 M148.379 137.301 C 146.148 139.060,143.125 141.394,141.661 142.487 C 137.823 145.354,137.826 145.359,151.296 158.796 L 163.592 171.063 168.280 167.410 C 171.020 165.275,172.681 163.288,172.277 162.629 C 171.660 161.622,153.030 134.791,152.607 134.301 C 152.513 134.192,150.610 135.542,148.379 137.301 M131.078 153.074 C 120.881 164.897,120.687 164.154,136.000 171.971 C 141.225 174.639,147.411 177.874,149.746 179.160 L 153.992 181.500 156.996 178.304 C 161.020 174.023,161.571 175.037,147.736 161.235 C 133.608 147.142,135.427 148.032,131.078 153.074 M203.500 163.954 C 165.887 173.864,146.599 197.252,146.556 233.000 L 146.538 248.500 150.330 258.500 C 160.525 285.382,163.906 301.084,162.019 312.780 C 161.364 316.840,160.980 320.314,161.166 320.499 C 161.352 320.685,174.103 316.826,189.502 311.923 C 204.901 307.021,219.583 302.373,222.128 301.595 C 227.424 299.976,225.820 299.254,241.210 310.194 C 264.028 326.416,306.197 347.717,304.626 342.228 C 300.061 326.279,292.024 269.949,292.002 253.750 C 292.000 252.208,290.888 252.000,282.659 252.000 C 271.622 252.000,265.738 250.437,258.380 245.551 C 251.953 241.284,251.811 240.307,256.940 235.673 C 263.494 229.752,266.624 228.522,275.000 228.575 C 293.319 228.690,304.929 243.425,304.985 266.628 L 305.000 272.757 312.750 273.934 C 317.012 274.581,323.586 275.380,327.357 275.709 L 334.214 276.308 326.324 265.904 C 315.150 251.169,304.046 230.753,298.161 214.121 C 284.953 176.799,241.717 153.885,203.500 163.954 M118.159 173.385 C 114.433 181.313,114.436 182.483,118.188 183.708 C 120.010 184.303,126.881 186.862,133.458 189.395 C 140.035 191.928,145.526 194.000,145.660 194.000 C 145.794 194.000,147.235 192.066,148.861 189.702 L 151.818 185.404 136.021 177.197 L 120.225 168.990 118.159 173.385 M112.133 191.750 C 109.846 201.943,109.547 201.410,118.000 202.205 C 122.125 202.592,128.956 203.291,133.180 203.757 C 141.039 204.624,143.000 203.685,143.000 199.056 C 143.000 198.256,116.015 187.000,114.096 187.000 C 113.603 187.000,112.720 189.137,112.133 191.750 M110.082 215.250 C 110.165 224.674,112.764 238.486,114.407 238.237 C 114.906 238.162,116.329 234.901,117.569 230.991 C 121.145 219.712,128.685 212.000,136.137 212.000 C 137.820 212.000,139.621 210.287,138.800 209.467 C 138.428 209.094,114.006 206.029,111.250 206.009 C 110.334 206.002,110.022 208.469,110.082 215.250 M201.500 314.007 C 188.300 318.310,173.480 323.106,168.567 324.665 C 160.584 327.198,159.553 327.803,158.877 330.349 C 157.807 334.378,160.422 333.916,189.000 325.033 C 201.925 321.015,215.465 316.839,219.090 315.754 L 225.679 313.780 239.909 323.508 C 260.533 337.608,303.764 358.569,306.525 355.808 C 308.852 353.481,304.896 349.569,296.994 346.381 C 277.390 338.472,244.270 319.780,232.641 310.061 C 226.717 305.110,230.118 304.679,201.500 314.007 " stroke="none" fill="#000000" fill-rule="evenodd"></path></g></svg>